<svg width="277" height="46" viewBox="0 0 277 46" fill="none" xmlns="http://www.w3.org/2000/svg">
<rect y="2" width="277" height="39" fill="#1E1E1E"/>
<path d="M6.458 34C6.17933 34 6.04 33.8607 6.04 33.582V9.528C6.04 9.24933 6.17933 9.11 6.458 9.11H9.498C9.75133 9.11 9.878 9.24933 9.878 9.528V30.58H20.138C20.4167 30.58 20.556 30.7193 20.556 30.998V33.582C20.556 33.8607 20.4167 34 20.138 34H6.458ZM25.9565 34C25.6525 34 25.5385 33.848 25.6145 33.544L33.9365 9.452C34.0125 9.224 34.1645 9.11 34.3925 9.11H38.4585C38.7118 9.11 38.8765 9.224 38.9525 9.452L47.3505 33.544C47.4011 33.6707 47.3885 33.7847 47.3125 33.886C47.2618 33.962 47.1605 34 47.0085 34H43.7405C43.4871 34 43.3225 33.886 43.2465 33.658L37.9265 17.242C37.6731 16.4567 37.4198 15.6713 37.1665 14.886C36.9131 14.0753 36.6598 13.2773 36.4065 12.492H36.3305C36.1025 13.2773 35.8618 14.0627 35.6085 14.848C35.3551 15.608 35.1018 16.3807 34.8485 17.166L29.6045 33.658C29.5285 33.886 29.3638 34 29.1105 34H25.9565ZM30.6305 28.452L31.4665 25.222H41.3085L42.1825 28.452H30.6305ZM63.1386 34.456C60.0986 34.456 57.7552 33.6833 56.1086 32.138C54.4872 30.5673 53.6766 28.2873 53.6766 25.298V9.528C53.6766 9.24933 53.8159 9.11 54.0946 9.11H57.0966C57.2232 9.11 57.3246 9.148 57.4006 9.224C57.4766 9.27467 57.5146 9.376 57.5146 9.528V25.298C57.5146 27.1473 57.9832 28.5787 58.9206 29.592C59.8832 30.6053 61.2892 31.112 63.1386 31.112C64.9879 31.112 66.3812 30.6053 67.3186 29.592C68.2812 28.5787 68.7626 27.1473 68.7626 25.298V9.528C68.7626 9.24933 68.8892 9.11 69.1426 9.11H72.1826C72.4612 9.11 72.6006 9.24933 72.6006 9.528V25.336C72.6006 28.224 71.7646 30.466 70.0926 32.062C68.4206 33.658 66.1026 34.456 63.1386 34.456ZM87.9701 34C87.6914 34 87.5521 33.8607 87.5521 33.582V12.53H80.8641C80.5854 12.53 80.4461 12.3907 80.4461 12.112V9.528C80.4461 9.24933 80.5854 9.11 80.8641 9.11H98.1161C98.3947 9.11 98.5341 9.24933 98.5341 9.528V12.112C98.5341 12.3907 98.3947 12.53 98.1161 12.53H91.3901V33.582C91.3901 33.8607 91.2507 34 90.9721 34H87.9701ZM115.826 34.456C112.786 34.456 110.443 33.6833 108.796 32.138C107.175 30.5673 106.364 28.2873 106.364 25.298V9.528C106.364 9.24933 106.504 9.11 106.782 9.11H109.784C109.911 9.11 110.012 9.148 110.088 9.224C110.164 9.27467 110.202 9.376 110.202 9.528V25.298C110.202 27.1473 110.671 28.5787 111.608 29.592C112.571 30.6053 113.977 31.112 115.826 31.112C117.676 31.112 119.069 30.6053 120.006 29.592C120.969 28.5787 121.45 27.1473 121.45 25.298V9.528C121.45 9.24933 121.577 9.11 121.83 9.11H124.87C125.149 9.11 125.288 9.24933 125.288 9.528V25.336C125.288 28.224 124.452 30.466 122.78 32.062C121.108 33.658 118.79 34.456 115.826 34.456ZM142.482 34.456C140.405 34.456 138.695 34.1647 137.352 33.582C136.035 32.974 135.072 32.138 134.464 31.074C133.881 29.9847 133.641 28.7053 133.742 27.236C133.767 26.8053 133.932 26.59 134.236 26.59H137.162C137.466 26.59 137.618 26.78 137.618 27.16C137.618 28.5533 138.036 29.5667 138.872 30.2C139.708 30.8333 141 31.15 142.748 31.15C144.42 31.15 145.674 30.8587 146.51 30.276C147.371 29.6933 147.802 28.8067 147.802 27.616C147.802 27.0333 147.701 26.5393 147.498 26.134C147.321 25.7033 146.991 25.3233 146.51 24.994C146.029 24.6647 145.395 24.3353 144.61 24.006L139.024 21.688C137.833 21.1813 136.871 20.624 136.136 20.016C135.427 19.408 134.907 18.7113 134.578 17.926C134.274 17.1407 134.122 16.2413 134.122 15.228C134.147 13.1 134.857 11.4787 136.25 10.364C137.669 9.24933 139.733 8.692 142.444 8.692C144.319 8.692 145.927 8.958 147.27 9.49C148.638 10.022 149.651 10.8073 150.31 11.846C150.994 12.8847 151.273 14.164 151.146 15.684C151.095 16.14 150.943 16.368 150.69 16.368H147.726C147.599 16.368 147.498 16.3173 147.422 16.216C147.371 16.1147 147.359 15.9373 147.384 15.684C147.46 14.5187 147.055 13.6067 146.168 12.948C145.281 12.2893 144.015 11.96 142.368 11.96C140.924 11.96 139.835 12.226 139.1 12.758C138.365 13.2647 137.985 14.0373 137.96 15.076C137.96 15.6333 138.061 16.1147 138.264 16.52C138.467 16.9253 138.809 17.3053 139.29 17.66C139.771 18.0147 140.43 18.3693 141.266 18.724L146.776 21.042C147.967 21.5233 148.917 22.068 149.626 22.676C150.361 23.284 150.88 23.9807 151.184 24.766C151.488 25.5513 151.64 26.5013 151.64 27.616C151.64 29.7693 150.905 31.454 149.436 32.67C147.967 33.8607 145.649 34.456 142.482 34.456ZM181.217 34.456C178.253 34.456 175.986 33.7087 174.415 32.214C172.87 30.7193 172.097 28.604 172.097 25.868V17.242C172.097 14.506 172.882 12.3907 174.453 10.896C176.024 9.40133 178.291 8.654 181.255 8.654C183.18 8.654 184.852 8.98333 186.271 9.642C187.69 10.2753 188.754 11.2 189.463 12.416C190.172 13.632 190.438 15.1013 190.261 16.824C190.236 16.9 190.198 16.976 190.147 17.052C190.122 17.128 190.058 17.166 189.957 17.166H188.475C188.272 17.166 188.196 17.0773 188.247 16.9C188.374 14.8227 187.804 13.2393 186.537 12.15C185.296 11.0353 183.548 10.478 181.293 10.478C178.988 10.478 177.214 11.0607 175.973 12.226C174.732 13.3913 174.111 15.0633 174.111 17.242V25.868C174.111 28.0467 174.732 29.7187 175.973 30.884C177.214 32.0493 178.988 32.632 181.293 32.632C183.598 32.632 185.359 32.0873 186.575 30.998C187.791 29.9087 188.348 28.3127 188.247 26.21C188.196 26.0327 188.272 25.944 188.475 25.944H189.957C190.109 25.944 190.21 26.058 190.261 26.286C190.362 27.9833 190.058 29.44 189.349 30.656C188.64 31.872 187.588 32.8093 186.195 33.468C184.827 34.1267 183.168 34.456 181.217 34.456ZM208.768 34.456C205.753 34.456 203.473 33.7087 201.928 32.214C200.383 30.7193 199.61 28.604 199.61 25.868V17.242C199.61 14.506 200.383 12.3907 201.928 10.896C203.473 9.40133 205.753 8.654 208.768 8.654C211.783 8.654 214.063 9.40133 215.608 10.896C217.153 12.3907 217.926 14.506 217.926 17.242V25.868C217.926 28.604 217.153 30.7193 215.608 32.214C214.063 33.7087 211.783 34.456 208.768 34.456ZM208.768 32.632C211.073 32.632 212.834 32.0493 214.05 30.884C215.291 29.7187 215.912 28.034 215.912 25.83V17.28C215.912 15.076 215.291 13.3913 214.05 12.226C212.834 11.0607 211.073 10.478 208.768 10.478C206.463 10.478 204.689 11.0607 203.448 12.226C202.232 13.3913 201.624 15.076 201.624 17.28V25.83C201.624 28.034 202.232 29.7187 203.448 30.884C204.689 32.0493 206.463 32.632 208.768 32.632ZM228.589 34C228.411 34 228.323 33.9113 228.323 33.734V9.376C228.323 9.19867 228.411 9.11 228.589 9.11H235.049C238.823 9.11 241.648 9.99667 243.523 11.77C245.397 13.5433 246.335 16.254 246.335 19.902V22.6C246.335 26.476 245.397 29.3513 243.523 31.226C241.648 33.0753 238.823 34 235.049 34H228.589ZM230.337 32.252H234.935C238.127 32.252 240.483 31.4793 242.003 29.934C243.548 28.3887 244.321 25.982 244.321 22.714V19.826C244.321 16.7353 243.548 14.468 242.003 13.024C240.483 11.58 238.127 10.858 234.935 10.858H230.337V32.252ZM256.584 34C256.407 34 256.318 33.9113 256.318 33.734V9.376C256.318 9.19867 256.407 9.11 256.584 9.11H269.96C270.137 9.11 270.226 9.19867 270.226 9.376V10.706C270.226 10.8833 270.137 10.972 269.96 10.972H258.332V20.396H269.086C269.263 20.396 269.352 20.4847 269.352 20.662V21.916C269.352 22.0933 269.263 22.182 269.086 22.182H258.332V32.138H269.96C270.137 32.138 270.226 32.2267 270.226 32.404V33.734C270.226 33.9113 270.137 34 269.96 34H256.584Z" fill="white"/>
</svg>
