<svg width="69" height="69" viewBox="0 0 69 69" fill="none" xmlns="http://www.w3.org/2000/svg">
<rect width="69" height="69" fill="#1E1E1E"/>
<path d="M6.628 48C6.292 48 6.124 47.832 6.124 47.496V24.924C6.124 24.588 6.292 24.42 6.628 24.42H11.668C11.932 24.42 12.064 24.588 12.064 24.924V42.852H20.992C21.304 42.852 21.46 43.02 21.46 43.356V47.496C21.46 47.832 21.304 48 20.992 48H6.628ZM26.6463 48C26.2143 48 26.0703 47.808 26.2143 47.424L35.5743 24.816C35.6943 24.552 35.8983 24.42 36.1863 24.42H40.3623C40.7703 24.42 40.9023 24.612 40.7583 24.996L31.3983 47.604C31.3023 47.868 31.0983 48 30.7863 48H26.6463ZM52.4945 48C52.1825 48 52.0265 47.832 52.0265 47.496V29.568H46.1225C45.7865 29.568 45.6185 29.4 45.6185 29.064V24.924C45.6185 24.588 45.7865 24.42 46.1225 24.42H63.8345C64.1465 24.42 64.3025 24.588 64.3025 24.924V29.064C64.3025 29.4 64.1465 29.568 63.8345 29.568H57.9305V47.496C57.9305 47.832 57.7625 48 57.4265 48H52.4945Z" fill="white"/>
</svg>
